<?xml version="1.0" encoding="UTF-8"?>
<svg id="Layer_2" data-name="Layer 2" xmlns="http://www.w3.org/2000/svg" viewBox="0 0 194.34 166.7">
  <defs>
    <style>
      .cls-1 {
        fill: #181721;
      }
    </style>
  </defs>
  <g id="Layer_1-2" data-name="Layer 1">
    <g>
      <path class="cls-1" d="M182.3,12.01h9.98v-.05l-9.98-3.98v-1.04l9.98-3.99v-.03h-9.98v-1.72h11.82v2.71l-9.05,3.55,9.05,3.56v2.71h-11.82v-1.72Z"/>
      <path class="cls-1" d="M182.3,33.39l3.48-1.31v-4.25l-3.48-1.31v-1.82l11.82,4.49v1.55l-11.82,4.49v-1.84ZM191.88,29.99v-.03l-4.52-1.52v3.05l4.52-1.5Z"/>
      <path class="cls-1" d="M182.3,51.69l5.48-3.9v-.03h-5.48v-1.72h11.82v3.78c0,2.84-1.5,4.1-3.93,4.1-2.25,0-3.43-1.72-3.48-3.39l-4.41,3.31v-2.16ZM188.01,49.02c0,2.01.78,3.18,2.32,3.18,1.36,0,2.2-1.09,2.2-2.62v-1.82h-4.52v1.26Z"/>
      <path class="cls-1" d="M182.3,65.5h11.82v1.72h-11.82v-1.72ZM182.3,71.74l5.96-4.49,5.86,4.49v2.12l-5.86-4.62-5.96,4.62v-2.12Z"/>
      <path class="cls-1" d="M182.3,84.55h11.82v6.37h-1.58v-4.65h-3.48v4.65h-1.58v-4.65h-3.59v4.65h-1.58v-6.37Z"/>
      <path class="cls-1" d="M182.3,103.77h10.24v-2.27h1.58v6.26h-1.58v-2.27h-10.24v-1.72Z"/>
      <path class="cls-1" d="M182.3,118.67h11.82v1.72h-11.82v-1.72Z"/>
      <path class="cls-1" d="M182.3,139.95l9.13-5.84v-.03h-9.13v-1.72h11.82v1.88l-8.99,5.75v.03h8.99v1.72h-11.82v-1.79Z"/>
      <path class="cls-1" d="M186.59,157.81h1.58v7.47c-3.93-.11-6.1-3.08-6.1-6.23s2.78-5.92,5.97-5.92c3.83,0,6.29,2.94,6.29,5.92,0,2.27-1.07,4.22-3.19,5.41v-2.01c1.15-1.01,1.61-2.01,1.61-3.32,0-2.3-2.17-4.28-4.5-4.28-2.49,0-4.6,1.96-4.6,4.34,0,1.87,1.04,3.37,2.94,4.12v-5.51Z"/>
    </g>
    <g>
      <path class="cls-1" d="M34.28,59.03c0-6.99,3.56-11.26,9.44-11.26s8.93,3.49,8.93,11.19v19.47h6.73v-21.54c0-9.83-6.4-15.27-14.94-15.27-4.46,0-7.89,1.62-10.03,4.79h-.13v-15.85h-6.73v47.87h6.73v-19.41Z"/>
      <path class="cls-1" d="M87.16,79.34c5.11,0,9.64-2.2,12.16-6.47h.13v5.56h6.73v-35.84h-6.73v5.05h-.13c-2.78-4.08-7.18-6.02-12.42-6.02-10.54,0-18.76,8.02-18.76,19.47,0,10.35,8.54,18.24,19.02,18.24ZM87.09,47.77c7.44,0,12.49,5.82,12.49,12.81s-5.5,12.61-12.49,12.61-12.23-5.89-12.23-12.61,5.5-12.81,12.23-12.81Z"/>
      <path class="cls-1" d="M123.16,58.32c0-6.02,2.98-9.57,8.8-9.77v-6.92c-4.72.26-7.5,1.81-9.12,4.2h-.13v-3.23h-6.28v35.84h6.73v-20.12Z"/>
      <rect class="cls-1" x="27.55" y="114.9" width="6.73" height="7.86"/>
      <path class="cls-1" d="M67.14,85.95c-5.69,0-9.25,1.94-11.84,6.02-1.81-3.75-6.47-6.02-11.13-6.02s-7.38,1.42-10.29,4.85h-.13v-3.88h-6.21v21.24h6.73v-5.52c0-7.05,2.91-10.55,8.86-10.55,4.85,0,8.15,2.78,8.15,9.84v20.83h6.73v-20.18c0-7.18,2.59-10.48,8.54-10.48,5.63,0,8.48,3.82,8.48,10.61v20.05h6.72v-21.74c0-9.25-5.3-15.07-14.62-15.07Z"/>
      <path class="cls-1" d="M108.09,85.95c-11,0-19.6,8.09-19.6,19.02,0,10.09,8.99,18.69,19.08,18.69,11.45,0,19.47-8.99,19.6-18.57.13-11.38-9.18-19.15-19.08-19.15ZM107.64,117.52c-6.79,0-12.42-5.95-12.42-12.74s5.82-12.68,12.55-12.68,12.68,5.63,12.68,12.62-5.76,12.81-12.81,12.81Z"/>
      <rect class="cls-1" x="27.55" y="129.95" width="6.73" height="35.84"/>
      <path class="cls-1" d="M62.77,143.99c-3.56-1.1-6.66-2.01-6.66-5.05,0-2.07,1.62-3.82,4.21-3.82,2.78,0,4.27,1.75,4.59,4.33h6.73c-.19-6.34-5.05-10.48-11-10.48s-11.26,4.2-11.26,10.54c0,4.08,1.49,7.89,10.29,10.67,4.21,1.36,6.08,2.98,6.08,5.43,0,2.91-2.07,4.92-5.17,4.92-3.56,0-5.76-2.2-6.08-6.53h-6.73c0,8.28,6.21,12.68,12.68,12.68,6.99,0,12.03-4.53,12.03-11.45s-4.66-9.7-9.7-11.26Z"/>
      <path class="cls-1" d="M100.05,128.98c-9.51,0-18.05,7.89-18.05,19.21,0,9.57,8.15,18.5,18.24,18.5,7.7,0,14.43-4.79,17.21-12.16h-6.73c-2.07,3.82-6.02,6.02-10.22,6.02-5.5,0-10.22-3.82-11.77-9.77h29.69c.19-1.23.19-2.26.19-3.36,0-10.29-8.02-18.44-18.57-18.44ZM88.73,145.61c.52-6.15,6.02-10.48,11.51-10.48s11.13,4.4,11.64,10.48h-23.16Z"/>
      <path class="cls-1" d="M165.79,117.92v-16.64c0-9.9-6.34-15.33-14.94-15.33-4.14,0-7.83,1.36-10.48,4.79h-.13v-3.81h-6.27v35.84h6.73v-19.6c0-6.72,3.56-11.06,9.45-11.06s8.93,3.56,8.93,11.13v14.69h0v16.43h-.13c-2.91-3.62-7.5-5.37-12.36-5.37-10.67,0-18.44,8.34-18.44,19.28s8.22,18.44,18.63,18.44c5.24,0,9.9-2.14,12.68-6.02h.13v5.11h6.21v-47.87h0ZM147.1,160.55c-6.73,0-12.23-5.89-12.23-12.61s5.37-12.81,12.23-12.81c7.57,0,12.49,5.76,12.49,13.07,0,6.79-5.69,12.36-12.49,12.36Z"/>
    </g>
    <path class="cls-1" d="M0,0v165.79h27.55v-2.25H2.25V2.25h161.28v79.7h2.25V0H0Z"/>
  </g>
</svg>