<?xml version="1.0" encoding="UTF-8"?>
<svg id="Layer_2" data-name="Layer 2" xmlns="http://www.w3.org/2000/svg" viewBox="0 0 458.32 140.66">
  <defs>
    <style>
      .cls-1 {
        fill: #f4f4f9;
      }
    </style>
  </defs>
  <g id="Layer_1-2" data-name="Layer 1">
    <g>
      <path class="cls-1" d="M10.29,114.11h5.33l10.28,26.09h-4.95l-2.12-5.56H6.96l-2.12,5.56H0l10.29-26.09ZM17.25,130.49l-4.35-11.46-4.35,11.46h8.7Z"/>
      <path class="cls-1" d="M50.54,118.35h-7.45v-4.24h19.36v4.24h-7.41v21.86h-4.5v-21.86Z"/>
      <path class="cls-1" d="M90.93,118.35h-7.45v-4.24h19.36v4.24h-7.41v21.86h-4.5v-21.86Z"/>
      <path class="cls-1" d="M130.31,114.11h5.33l10.28,26.09h-4.95l-2.12-5.56h-11.88l-2.12,5.56h-4.84l10.29-26.09ZM137.27,130.49l-4.35-11.46-4.35,11.46h8.7Z"/>
      <path class="cls-1" d="M165.19,127.16c0-7.68,5.93-13.5,13.73-13.5,6.54,0,11.76,4.12,13.05,9.91h-4.77c-1.17-3.33-4.38-5.56-8.28-5.56-5.14,0-9.08,3.93-9.08,9.15s3.93,9.15,9.08,9.15c3.9,0,7.11-2.23,8.28-5.56h4.77c-1.29,5.79-6.51,9.91-13.05,9.91-7.79,0-13.73-5.82-13.73-13.5Z"/>
      <path class="cls-1" d="M215,114.11h4.5v10.85h12.78v-10.85h4.46v26.09h-4.46v-11.01h-12.78v11.01h-4.5v-26.09Z"/>
      <path class="cls-1" d="M261.3,114.11h5.6l8.58,14.79,8.59-14.79h5.56v26.09h-4.5v-19.55l-8.4,14.52h-2.57l-8.36-14.52v19.55h-4.5v-26.09Z"/>
      <path class="cls-1" d="M314.17,114.11h16.98v4.24h-12.48v6.62h11.23v4.23h-11.23v6.77h12.67v4.24h-17.17v-26.09Z"/>
      <path class="cls-1" d="M354.53,114.11h4.57l13.05,18.46v-18.46h4.5v26.09h-4.58l-13.05-18.46v18.46h-4.5v-26.09Z"/>
      <path class="cls-1" d="M406.83,118.35h-7.45v-4.24h19.36v4.24h-7.41v21.86h-4.5v-21.86Z"/>
      <path class="cls-1" d="M439.26,132.64h4.61c0,2.27,2.19,3.97,5.03,3.97,2.65,0,4.77-1.44,4.77-3.52,0-5.18-13.96-2.84-13.96-11.72,0-4.69,4.01-7.72,9.04-7.72s9.11,3.29,9.11,7.68h-4.61c0-2.08-1.97-3.63-4.58-3.63-2.35,0-4.35,1.28-4.35,3.33,0,5.18,14,2.5,14,11.57,0,4.88-4.2,8.06-9.46,8.06s-9.6-3.48-9.6-8.02Z"/>
    </g>
    <path class="cls-1" d="M67.17,88.18v-34.61H21.15v34.61H0V0h21.15v34.22h46.02V0h21.03v88.18h-21.03Z"/>
    <path class="cls-1" d="M103.37,88.18V0h21.41v88.18h-21.41Z"/>
    <path class="cls-1" d="M225.42,88.18v-50.24l-23.2,50.24h-19.87l-23.2-50.24v50.24h-19.61V0h23.33l29.61,66.39L222.21,0h22.68v88.18h-19.48Z"/>
    <path class="cls-1" d="M345.33,88.18l-9.74-18.84h-48.45l-9.74,18.84h-24.48L300.21,0h22.3l47.17,88.18h-24.35ZM311.36,21.27l-16.15,31.02h32.43l-16.28-31.02Z"/>
    <path class="cls-1" d="M399.16,21.49h59.16V0h-59.26c-21.38,0-27.89,6.52-27.89,28.54v30.99c0,21.91,6.52,28.64,27.89,28.64h59.26v-21.48h-59.16c-5.45,0-6.73-2.24-6.73-6.95v-31.21c0-5.24,1.92-7.05,6.73-7.05Z"/>
  </g>
</svg>